<svg enable-background="new 0 0 512 512" viewBox="0 0 512 512" xmlns="http://www.w3.org/2000/svg"><path d="m256 0c-141.167 0-256 114.844-256 256s114.833 256 256 256 256-114.844 256-256-114.833-256-256-256zm0 490.667c-129.396 0-234.667-105.271-234.667-234.667s105.271-234.667 234.667-234.667 234.667 105.271 234.667 234.667-105.271 234.667-234.667 234.667z"/><path d="m256 149.333c-58.813 0-106.667 47.854-106.667 106.667s47.855 106.667 106.667 106.667 106.667-47.854 106.667-106.667-47.854-106.667-106.667-106.667zm0 192c-47.063 0-85.333-38.281-85.333-85.333s38.271-85.333 85.333-85.333 85.333 38.281 85.333 85.333-38.27 85.333-85.333 85.333z"/></svg>