<svg enable-background="new 0 0 512 512" viewBox="0 0 512 512" xmlns="http://www.w3.org/2000/svg"><path d="m256 0c-141.167 0-256 114.844-256 256s114.833 256 256 256 256-114.844 256-256-114.833-256-256-256zm0 490.667c-129.396 0-234.667-105.271-234.667-234.667s105.271-234.667 234.667-234.667 234.667 105.271 234.667 234.667-105.271 234.667-234.667 234.667z"/><path d="m357.771 247.031-149.333-96c-3.271-2.135-7.5-2.25-10.875-.396-3.438 1.875-5.563 5.459-5.563 9.365v192c0 3.906 2.125 7.49 5.563 9.365 1.583.865 3.354 1.302 5.104 1.302 2 0 4.021-.563 5.771-1.698l149.333-96c3.042-1.958 4.896-5.344 4.896-8.969s-1.854-7.01-4.896-8.969zm-144.438 85.427v-152.916l118.938 76.458z"/></svg>