<svg width="416" height="120" viewBox="0 0 416 120" fill="none" xmlns="http://www.w3.org/2000/svg">
<rect x="0.5" y="0.5" width="415" height="119" rx="7.5" fill="white"/>
<path fill-rule="evenodd" clip-rule="evenodd" d="M76 85C89.8071 85 101 73.8071 101 60C101 46.1929 89.8071 35 76 35C62.1929 35 51 46.1929 51 60C51 73.8071 62.1929 85 76 85ZM76 88C91.464 88 104 75.464 104 60C104 44.536 91.464 32 76 32C60.536 32 48 44.536 48 60C48 75.464 60.536 88 76 88ZM71.909 48.3079L86.0523 58.0622C87.3179 58.9293 87.3139 61.0667 86.0523 61.9339L71.909 71.6835C70.6353 72.5647 69 71.5054 69 69.7476V50.2437C69 48.2844 70.7599 47.5157 71.909 48.3079Z" fill="#1C89C6"/>
<path d="M132.392 43.966H128.072V42.4H138.494V43.966H134.174V55H132.392V43.966ZM147.84 50.284C147.84 50.416 147.828 50.59 147.804 50.806H140.064C140.172 51.646 140.538 52.324 141.162 52.84C141.798 53.344 142.584 53.596 143.52 53.596C144.66 53.596 145.578 53.212 146.274 52.444L147.228 53.56C146.796 54.064 146.256 54.448 145.608 54.712C144.972 54.976 144.258 55.108 143.466 55.108C142.458 55.108 141.564 54.904 140.784 54.496C140.004 54.076 139.398 53.494 138.966 52.75C138.546 52.006 138.336 51.166 138.336 50.23C138.336 49.306 138.54 48.472 138.948 47.728C139.368 46.984 139.938 46.408 140.658 46C141.39 45.58 142.212 45.37 143.124 45.37C144.036 45.37 144.846 45.58 145.554 46C146.274 46.408 146.832 46.984 147.228 47.728C147.636 48.472 147.84 49.324 147.84 50.284ZM143.124 46.828C142.296 46.828 141.6 47.08 141.036 47.584C140.484 48.088 140.16 48.748 140.064 49.564H146.184C146.088 48.76 145.758 48.106 145.194 47.602C144.642 47.086 143.952 46.828 143.124 46.828ZM156.06 55L153.306 51.346L150.516 55H148.59L152.352 50.122L148.77 45.46H150.696L153.324 48.898L155.934 45.46H157.824L154.224 50.122L158.022 55H156.06ZM165.272 54.442C165.02 54.658 164.708 54.826 164.336 54.946C163.964 55.054 163.58 55.108 163.184 55.108C162.224 55.108 161.48 54.85 160.952 54.334C160.424 53.818 160.16 53.08 160.16 52.12V46.882H158.54V45.46H160.16V43.372H161.888V45.46H164.624V46.882H161.888V52.048C161.888 52.564 162.014 52.96 162.266 53.236C162.53 53.512 162.902 53.65 163.382 53.65C163.91 53.65 164.36 53.5 164.732 53.2L165.272 54.442ZM179.827 49.42H176.551V52.642H175.039V49.42H171.763V47.998H175.039V44.758H176.551V47.998H179.827V49.42ZM196.181 55L193.463 51.13C193.127 51.154 192.863 51.166 192.671 51.166H189.557V55H187.757V42.4H192.671C194.303 42.4 195.587 42.79 196.523 43.57C197.459 44.35 197.927 45.424 197.927 46.792C197.927 47.764 197.687 48.592 197.207 49.276C196.727 49.96 196.043 50.458 195.155 50.77L198.143 55H196.181ZM192.617 49.636C193.757 49.636 194.627 49.39 195.227 48.898C195.827 48.406 196.127 47.704 196.127 46.792C196.127 45.88 195.827 45.184 195.227 44.704C194.627 44.212 193.757 43.966 192.617 43.966H189.557V49.636H192.617ZM200.583 45.46H202.311V55H200.583V45.46ZM201.447 43.624C201.111 43.624 200.829 43.516 200.601 43.3C200.385 43.084 200.277 42.82 200.277 42.508C200.277 42.196 200.385 41.932 200.601 41.716C200.829 41.488 201.111 41.374 201.447 41.374C201.783 41.374 202.059 41.482 202.275 41.698C202.503 41.902 202.617 42.16 202.617 42.472C202.617 42.796 202.503 43.072 202.275 43.3C202.059 43.516 201.783 43.624 201.447 43.624ZM214.737 45.46V53.704C214.737 55.372 214.323 56.602 213.495 57.394C212.667 58.198 211.431 58.6 209.787 58.6C208.887 58.6 208.029 58.474 207.213 58.222C206.397 57.982 205.737 57.634 205.233 57.178L206.061 55.846C206.505 56.23 207.051 56.53 207.699 56.746C208.359 56.974 209.037 57.088 209.733 57.088C210.849 57.088 211.671 56.824 212.199 56.296C212.739 55.768 213.009 54.964 213.009 53.884V53.128C212.601 53.62 212.097 53.992 211.497 54.244C210.909 54.484 210.267 54.604 209.571 54.604C208.659 54.604 207.831 54.412 207.087 54.028C206.355 53.632 205.779 53.086 205.359 52.39C204.939 51.682 204.729 50.878 204.729 49.978C204.729 49.078 204.939 48.28 205.359 47.584C205.779 46.876 206.355 46.33 207.087 45.946C207.831 45.562 208.659 45.37 209.571 45.37C210.291 45.37 210.957 45.502 211.569 45.766C212.193 46.03 212.703 46.42 213.099 46.936V45.46H214.737ZM209.769 53.092C210.393 53.092 210.951 52.96 211.443 52.696C211.947 52.432 212.337 52.066 212.613 51.598C212.901 51.118 213.045 50.578 213.045 49.978C213.045 49.054 212.739 48.31 212.127 47.746C211.515 47.17 210.729 46.882 209.769 46.882C208.797 46.882 208.005 47.17 207.393 47.746C206.781 48.31 206.475 49.054 206.475 49.978C206.475 50.578 206.613 51.118 206.889 51.598C207.177 52.066 207.567 52.432 208.059 52.696C208.563 52.96 209.133 53.092 209.769 53.092ZM223.132 45.37C224.344 45.37 225.304 45.724 226.012 46.432C226.732 47.128 227.092 48.154 227.092 49.51V55H225.364V49.708C225.364 48.784 225.142 48.088 224.698 47.62C224.254 47.152 223.618 46.918 222.79 46.918C221.854 46.918 221.116 47.194 220.576 47.746C220.036 48.286 219.766 49.066 219.766 50.086V55H218.038V41.644H219.766V46.81C220.126 46.354 220.594 46 221.17 45.748C221.758 45.496 222.412 45.37 223.132 45.37ZM235.654 54.442C235.402 54.658 235.09 54.826 234.718 54.946C234.346 55.054 233.962 55.108 233.566 55.108C232.606 55.108 231.862 54.85 231.334 54.334C230.806 53.818 230.542 53.08 230.542 52.12V46.882H228.922V45.46H230.542V43.372H232.27V45.46H235.006V46.882H232.27V52.048C232.27 52.564 232.396 52.96 232.648 53.236C232.912 53.512 233.284 53.65 233.764 53.65C234.292 53.65 234.742 53.5 235.114 53.2L235.654 54.442ZM250.857 51.85H244.161L242.775 55H240.921L246.627 42.4H248.409L254.133 55H252.243L250.857 51.85ZM250.227 50.41L247.509 44.236L244.791 50.41H250.227ZM255.761 41.644H257.489V55H255.761V41.644ZM260.788 45.46H262.516V55H260.788V45.46ZM261.652 43.624C261.316 43.624 261.034 43.516 260.806 43.3C260.59 43.084 260.482 42.82 260.482 42.508C260.482 42.196 260.59 41.932 260.806 41.716C261.034 41.488 261.316 41.374 261.652 41.374C261.988 41.374 262.264 41.482 262.48 41.698C262.708 41.902 262.822 42.16 262.822 42.472C262.822 42.796 262.708 43.072 262.48 43.3C262.264 43.516 261.988 43.624 261.652 43.624ZM274.942 45.46V53.704C274.942 55.372 274.528 56.602 273.7 57.394C272.872 58.198 271.636 58.6 269.992 58.6C269.092 58.6 268.234 58.474 267.418 58.222C266.602 57.982 265.942 57.634 265.438 57.178L266.266 55.846C266.71 56.23 267.256 56.53 267.904 56.746C268.564 56.974 269.242 57.088 269.938 57.088C271.054 57.088 271.876 56.824 272.404 56.296C272.944 55.768 273.214 54.964 273.214 53.884V53.128C272.806 53.62 272.302 53.992 271.702 54.244C271.114 54.484 270.472 54.604 269.776 54.604C268.864 54.604 268.036 54.412 267.292 54.028C266.56 53.632 265.984 53.086 265.564 52.39C265.144 51.682 264.934 50.878 264.934 49.978C264.934 49.078 265.144 48.28 265.564 47.584C265.984 46.876 266.56 46.33 267.292 45.946C268.036 45.562 268.864 45.37 269.776 45.37C270.496 45.37 271.162 45.502 271.774 45.766C272.398 46.03 272.908 46.42 273.304 46.936V45.46H274.942ZM269.974 53.092C270.598 53.092 271.156 52.96 271.648 52.696C272.152 52.432 272.542 52.066 272.818 51.598C273.106 51.118 273.25 50.578 273.25 49.978C273.25 49.054 272.944 48.31 272.332 47.746C271.72 47.17 270.934 46.882 269.974 46.882C269.002 46.882 268.21 47.17 267.598 47.746C266.986 48.31 266.68 49.054 266.68 49.978C266.68 50.578 266.818 51.118 267.094 51.598C267.382 52.066 267.772 52.432 268.264 52.696C268.768 52.96 269.338 53.092 269.974 53.092ZM283.337 45.37C284.549 45.37 285.509 45.724 286.217 46.432C286.937 47.128 287.297 48.154 287.297 49.51V55H285.569V49.708C285.569 48.784 285.347 48.088 284.903 47.62C284.459 47.152 283.823 46.918 282.995 46.918C282.059 46.918 281.321 47.194 280.781 47.746C280.241 48.286 279.971 49.066 279.971 50.086V55H278.243V45.46H279.899V46.9C280.247 46.408 280.715 46.03 281.303 45.766C281.903 45.502 282.581 45.37 283.337 45.37ZM299.17 50.284C299.17 50.416 299.158 50.59 299.134 50.806H291.394C291.502 51.646 291.868 52.324 292.492 52.84C293.128 53.344 293.914 53.596 294.85 53.596C295.99 53.596 296.908 53.212 297.604 52.444L298.558 53.56C298.126 54.064 297.586 54.448 296.938 54.712C296.302 54.976 295.588 55.108 294.796 55.108C293.788 55.108 292.894 54.904 292.114 54.496C291.334 54.076 290.728 53.494 290.296 52.75C289.876 52.006 289.666 51.166 289.666 50.23C289.666 49.306 289.87 48.472 290.278 47.728C290.698 46.984 291.268 46.408 291.988 46C292.72 45.58 293.542 45.37 294.454 45.37C295.366 45.37 296.176 45.58 296.884 46C297.604 46.408 298.162 46.984 298.558 47.728C298.966 48.472 299.17 49.324 299.17 50.284ZM294.454 46.828C293.626 46.828 292.93 47.08 292.366 47.584C291.814 48.088 291.49 48.748 291.394 49.564H297.514C297.418 48.76 297.088 48.106 296.524 47.602C295.972 47.086 295.282 46.828 294.454 46.828ZM310.57 41.644V55H308.914V53.488C308.53 54.016 308.044 54.418 307.456 54.694C306.868 54.97 306.22 55.108 305.512 55.108C304.588 55.108 303.76 54.904 303.028 54.496C302.296 54.088 301.72 53.518 301.3 52.786C300.892 52.042 300.688 51.19 300.688 50.23C300.688 49.27 300.892 48.424 301.3 47.692C301.72 46.96 302.296 46.39 303.028 45.982C303.76 45.574 304.588 45.37 305.512 45.37C306.196 45.37 306.826 45.502 307.402 45.766C307.978 46.018 308.458 46.396 308.842 46.9V41.644H310.57ZM305.656 53.596C306.256 53.596 306.802 53.458 307.294 53.182C307.786 52.894 308.17 52.498 308.446 51.994C308.722 51.478 308.86 50.89 308.86 50.23C308.86 49.57 308.722 48.988 308.446 48.484C308.17 47.968 307.786 47.572 307.294 47.296C306.802 47.02 306.256 46.882 305.656 46.882C305.044 46.882 304.492 47.02 304 47.296C303.52 47.572 303.136 47.968 302.848 48.484C302.572 48.988 302.434 49.57 302.434 50.23C302.434 50.89 302.572 51.478 302.848 51.994C303.136 52.498 303.52 52.894 304 53.182C304.492 53.458 305.044 53.596 305.656 53.596ZM129.89 64.4H131.69V77H129.89V64.4ZM147.144 67.37C148.344 67.37 149.292 67.718 149.988 68.414C150.696 69.11 151.05 70.142 151.05 71.51V77H149.322V71.708C149.322 70.784 149.106 70.088 148.674 69.62C148.254 69.152 147.648 68.918 146.856 68.918C145.98 68.918 145.284 69.194 144.768 69.746C144.252 70.286 143.994 71.066 143.994 72.086V77H142.266V71.708C142.266 70.784 142.05 70.088 141.618 69.62C141.198 69.152 140.592 68.918 139.8 68.918C138.924 68.918 138.228 69.194 137.712 69.746C137.196 70.286 136.938 71.066 136.938 72.086V77H135.21V67.46H136.866V68.882C137.214 68.39 137.67 68.018 138.234 67.766C138.798 67.502 139.44 67.37 140.16 67.37C140.904 67.37 141.564 67.52 142.14 67.82C142.716 68.12 143.16 68.558 143.472 69.134C143.832 68.582 144.33 68.15 144.966 67.838C145.614 67.526 146.34 67.37 147.144 67.37ZM157.704 67.37C159.024 67.37 160.032 67.694 160.728 68.342C161.436 68.99 161.79 69.956 161.79 71.24V77H160.152V75.74C159.864 76.184 159.45 76.526 158.91 76.766C158.382 76.994 157.752 77.108 157.02 77.108C155.952 77.108 155.094 76.85 154.446 76.334C153.81 75.818 153.492 75.14 153.492 74.3C153.492 73.46 153.798 72.788 154.41 72.284C155.022 71.768 155.994 71.51 157.326 71.51H160.062V71.168C160.062 70.424 159.846 69.854 159.414 69.458C158.982 69.062 158.346 68.864 157.506 68.864C156.942 68.864 156.39 68.96 155.85 69.152C155.31 69.332 154.854 69.578 154.482 69.89L153.762 68.594C154.254 68.198 154.842 67.898 155.526 67.694C156.21 67.478 156.936 67.37 157.704 67.37ZM157.308 75.776C157.968 75.776 158.538 75.632 159.018 75.344C159.498 75.044 159.846 74.624 160.062 74.084V72.752H157.398C155.934 72.752 155.202 73.244 155.202 74.228C155.202 74.708 155.388 75.086 155.76 75.362C156.132 75.638 156.648 75.776 157.308 75.776ZM174.166 67.46V75.704C174.166 77.372 173.752 78.602 172.924 79.394C172.096 80.198 170.86 80.6 169.216 80.6C168.316 80.6 167.458 80.474 166.642 80.222C165.826 79.982 165.166 79.634 164.662 79.178L165.49 77.846C165.934 78.23 166.48 78.53 167.128 78.746C167.788 78.974 168.466 79.088 169.162 79.088C170.278 79.088 171.1 78.824 171.628 78.296C172.168 77.768 172.438 76.964 172.438 75.884V75.128C172.03 75.62 171.526 75.992 170.926 76.244C170.338 76.484 169.696 76.604 169 76.604C168.088 76.604 167.26 76.412 166.516 76.028C165.784 75.632 165.208 75.086 164.788 74.39C164.368 73.682 164.158 72.878 164.158 71.978C164.158 71.078 164.368 70.28 164.788 69.584C165.208 68.876 165.784 68.33 166.516 67.946C167.26 67.562 168.088 67.37 169 67.37C169.72 67.37 170.386 67.502 170.998 67.766C171.622 68.03 172.132 68.42 172.528 68.936V67.46H174.166ZM169.198 75.092C169.822 75.092 170.38 74.96 170.872 74.696C171.376 74.432 171.766 74.066 172.042 73.598C172.33 73.118 172.474 72.578 172.474 71.978C172.474 71.054 172.168 70.31 171.556 69.746C170.944 69.17 170.158 68.882 169.198 68.882C168.226 68.882 167.434 69.17 166.822 69.746C166.21 70.31 165.904 71.054 165.904 71.978C165.904 72.578 166.042 73.118 166.318 73.598C166.606 74.066 166.996 74.432 167.488 74.696C167.992 74.96 168.562 75.092 169.198 75.092ZM186.09 72.284C186.09 72.416 186.078 72.59 186.054 72.806H178.314C178.422 73.646 178.788 74.324 179.412 74.84C180.048 75.344 180.834 75.596 181.77 75.596C182.91 75.596 183.828 75.212 184.524 74.444L185.478 75.56C185.046 76.064 184.506 76.448 183.858 76.712C183.222 76.976 182.508 77.108 181.716 77.108C180.708 77.108 179.814 76.904 179.034 76.496C178.254 76.076 177.648 75.494 177.216 74.75C176.796 74.006 176.586 73.166 176.586 72.23C176.586 71.306 176.79 70.472 177.198 69.728C177.618 68.984 178.188 68.408 178.908 68C179.64 67.58 180.462 67.37 181.374 67.37C182.286 67.37 183.096 67.58 183.804 68C184.524 68.408 185.082 68.984 185.478 69.728C185.886 70.472 186.09 71.324 186.09 72.284ZM181.374 68.828C180.546 68.828 179.85 69.08 179.286 69.584C178.734 70.088 178.41 70.748 178.314 71.564H184.434C184.338 70.76 184.008 70.106 183.444 69.602C182.892 69.086 182.202 68.828 181.374 68.828ZM193.324 67.46H195.052V77H193.324V67.46ZM194.188 65.624C193.852 65.624 193.57 65.516 193.342 65.3C193.126 65.084 193.018 64.82 193.018 64.508C193.018 64.196 193.126 63.932 193.342 63.716C193.57 63.488 193.852 63.374 194.188 63.374C194.524 63.374 194.8 63.482 195.016 63.698C195.244 63.902 195.358 64.16 195.358 64.472C195.358 64.796 195.244 65.072 195.016 65.3C194.8 65.516 194.524 65.624 194.188 65.624ZM203.445 67.37C204.657 67.37 205.617 67.724 206.325 68.432C207.045 69.128 207.405 70.154 207.405 71.51V77H205.677V71.708C205.677 70.784 205.455 70.088 205.011 69.62C204.567 69.152 203.931 68.918 203.103 68.918C202.167 68.918 201.429 69.194 200.889 69.746C200.349 70.286 200.079 71.066 200.079 72.086V77H198.351V67.46H200.007V68.9C200.355 68.408 200.823 68.03 201.411 67.766C202.011 67.502 202.689 67.37 203.445 67.37ZM218.191 65.966H213.871V64.4H224.293V65.966H219.973V77H218.191V65.966ZM239.84 67.46L236.276 77H234.62L231.866 69.764L229.076 77H227.42L223.874 67.46H225.512L228.284 75.056L231.164 67.46H232.622L235.448 75.092L238.292 67.46H239.84ZM245.415 77.108C244.467 77.108 243.615 76.898 242.859 76.478C242.103 76.058 241.509 75.482 241.077 74.75C240.657 74.006 240.447 73.166 240.447 72.23C240.447 71.294 240.657 70.46 241.077 69.728C241.509 68.984 242.103 68.408 242.859 68C243.615 67.58 244.467 67.37 245.415 67.37C246.363 67.37 247.209 67.58 247.953 68C248.709 68.408 249.297 68.984 249.717 69.728C250.149 70.46 250.365 71.294 250.365 72.23C250.365 73.166 250.149 74.006 249.717 74.75C249.297 75.482 248.709 76.058 247.953 76.478C247.209 76.898 246.363 77.108 245.415 77.108ZM245.415 75.596C246.027 75.596 246.573 75.458 247.053 75.182C247.545 74.894 247.929 74.498 248.205 73.994C248.481 73.478 248.619 72.89 248.619 72.23C248.619 71.57 248.481 70.988 248.205 70.484C247.929 69.968 247.545 69.572 247.053 69.296C246.573 69.02 246.027 68.882 245.415 68.882C244.803 68.882 244.251 69.02 243.759 69.296C243.279 69.572 242.895 69.968 242.607 70.484C242.331 70.988 242.193 71.57 242.193 72.23C242.193 72.89 242.331 73.478 242.607 73.994C242.895 74.498 243.279 74.894 243.759 75.182C244.251 75.458 244.803 75.596 245.415 75.596ZM257.841 64.4H259.641V75.434H266.463V77H257.841V64.4ZM268.277 67.46H270.005V77H268.277V67.46ZM269.141 65.624C268.805 65.624 268.523 65.516 268.295 65.3C268.079 65.084 267.971 64.82 267.971 64.508C267.971 64.196 268.079 63.932 268.295 63.716C268.523 63.488 268.805 63.374 269.141 63.374C269.477 63.374 269.753 63.482 269.969 63.698C270.197 63.902 270.311 64.16 270.311 64.472C270.311 64.796 270.197 65.072 269.969 65.3C269.753 65.516 269.477 65.624 269.141 65.624ZM278.398 67.37C279.61 67.37 280.57 67.724 281.278 68.432C281.998 69.128 282.358 70.154 282.358 71.51V77H280.63V71.708C280.63 70.784 280.408 70.088 279.964 69.62C279.52 69.152 278.884 68.918 278.056 68.918C277.12 68.918 276.382 69.194 275.842 69.746C275.302 70.286 275.032 71.066 275.032 72.086V77H273.304V67.46H274.96V68.9C275.308 68.408 275.776 68.03 276.364 67.766C276.964 67.502 277.642 67.37 278.398 67.37ZM294.231 72.284C294.231 72.416 294.219 72.59 294.195 72.806H286.455C286.563 73.646 286.929 74.324 287.553 74.84C288.189 75.344 288.975 75.596 289.911 75.596C291.051 75.596 291.969 75.212 292.665 74.444L293.619 75.56C293.187 76.064 292.647 76.448 291.999 76.712C291.363 76.976 290.649 77.108 289.857 77.108C288.849 77.108 287.955 76.904 287.175 76.496C286.395 76.076 285.789 75.494 285.357 74.75C284.937 74.006 284.727 73.166 284.727 72.23C284.727 71.306 284.931 70.472 285.339 69.728C285.759 68.984 286.329 68.408 287.049 68C287.781 67.58 288.603 67.37 289.515 67.37C290.427 67.37 291.237 67.58 291.945 68C292.665 68.408 293.223 68.984 293.619 69.728C294.027 70.472 294.231 71.324 294.231 72.284ZM289.515 68.828C288.687 68.828 287.991 69.08 287.427 69.584C286.875 70.088 286.551 70.748 286.455 71.564H292.575C292.479 70.76 292.149 70.106 291.585 69.602C291.033 69.086 290.343 68.828 289.515 68.828ZM298.286 69.062C298.586 68.51 299.03 68.09 299.618 67.802C300.206 67.514 300.92 67.37 301.76 67.37V69.044C301.664 69.032 301.532 69.026 301.364 69.026C300.428 69.026 299.69 69.308 299.15 69.872C298.622 70.424 298.358 71.216 298.358 72.248V77H296.63V67.46H298.286V69.062Z" fill="#444444"/>
<rect x="0.5" y="0.5" width="415" height="119" rx="7.5" stroke="#E7E7E7"/>
</svg>
