<svg width="416" height="120" viewBox="0 0 416 120" fill="none" xmlns="http://www.w3.org/2000/svg">
<rect x="0.5" y="0.5" width="415" height="119" rx="7.5" fill="white"/>
<path fill-rule="evenodd" clip-rule="evenodd" d="M76 85C89.8071 85 101 73.8071 101 60C101 46.1929 89.8071 35 76 35C62.1929 35 51 46.1929 51 60C51 73.8071 62.1929 85 76 85ZM76 88C91.464 88 104 75.464 104 60C104 44.536 91.464 32 76 32C60.536 32 48 44.536 48 60C48 75.464 60.536 88 76 88ZM76 72C82.6274 72 88 66.6274 88 60C88 53.3726 82.6274 48 76 48C69.3726 48 64 53.3726 64 60C64 66.6274 69.3726 72 76 72Z" fill="#1C89C6"/>
<path d="M132.392 54.966H128.072V53.4H138.494V54.966H134.174V66H132.392V54.966ZM147.84 61.284C147.84 61.416 147.828 61.59 147.804 61.806H140.064C140.172 62.646 140.538 63.324 141.162 63.84C141.798 64.344 142.584 64.596 143.52 64.596C144.66 64.596 145.578 64.212 146.274 63.444L147.228 64.56C146.796 65.064 146.256 65.448 145.608 65.712C144.972 65.976 144.258 66.108 143.466 66.108C142.458 66.108 141.564 65.904 140.784 65.496C140.004 65.076 139.398 64.494 138.966 63.75C138.546 63.006 138.336 62.166 138.336 61.23C138.336 60.306 138.54 59.472 138.948 58.728C139.368 57.984 139.938 57.408 140.658 57C141.39 56.58 142.212 56.37 143.124 56.37C144.036 56.37 144.846 56.58 145.554 57C146.274 57.408 146.832 57.984 147.228 58.728C147.636 59.472 147.84 60.324 147.84 61.284ZM143.124 57.828C142.296 57.828 141.6 58.08 141.036 58.584C140.484 59.088 140.16 59.748 140.064 60.564H146.184C146.088 59.76 145.758 59.106 145.194 58.602C144.642 58.086 143.952 57.828 143.124 57.828ZM156.06 66L153.306 62.346L150.516 66H148.59L152.352 61.122L148.77 56.46H150.696L153.324 59.898L155.934 56.46H157.824L154.224 61.122L158.022 66H156.06ZM165.272 65.442C165.02 65.658 164.708 65.826 164.336 65.946C163.964 66.054 163.58 66.108 163.184 66.108C162.224 66.108 161.48 65.85 160.952 65.334C160.424 64.818 160.16 64.08 160.16 63.12V57.882H158.54V56.46H160.16V54.372H161.888V56.46H164.624V57.882H161.888V63.048C161.888 63.564 162.014 63.96 162.266 64.236C162.53 64.512 162.902 64.65 163.382 64.65C163.91 64.65 164.36 64.5 164.732 64.2L165.272 65.442ZM179.827 60.42H176.551V63.642H175.039V60.42H171.763V58.998H175.039V55.758H176.551V58.998H179.827V60.42ZM187.757 53.4H189.557V66H187.757V53.4ZM205.011 56.37C206.211 56.37 207.159 56.718 207.855 57.414C208.563 58.11 208.917 59.142 208.917 60.51V66H207.189V60.708C207.189 59.784 206.973 59.088 206.541 58.62C206.121 58.152 205.515 57.918 204.723 57.918C203.847 57.918 203.151 58.194 202.635 58.746C202.119 59.286 201.861 60.066 201.861 61.086V66H200.133V60.708C200.133 59.784 199.917 59.088 199.485 58.62C199.065 58.152 198.459 57.918 197.667 57.918C196.791 57.918 196.095 58.194 195.579 58.746C195.063 59.286 194.805 60.066 194.805 61.086V66H193.077V56.46H194.733V57.882C195.081 57.39 195.537 57.018 196.101 56.766C196.665 56.502 197.307 56.37 198.027 56.37C198.771 56.37 199.431 56.52 200.007 56.82C200.583 57.12 201.027 57.558 201.339 58.134C201.699 57.582 202.197 57.15 202.833 56.838C203.481 56.526 204.207 56.37 205.011 56.37ZM215.571 56.37C216.891 56.37 217.899 56.694 218.595 57.342C219.303 57.99 219.657 58.956 219.657 60.24V66H218.019V64.74C217.731 65.184 217.317 65.526 216.777 65.766C216.249 65.994 215.619 66.108 214.887 66.108C213.819 66.108 212.961 65.85 212.313 65.334C211.677 64.818 211.359 64.14 211.359 63.3C211.359 62.46 211.665 61.788 212.277 61.284C212.889 60.768 213.861 60.51 215.193 60.51H217.929V60.168C217.929 59.424 217.713 58.854 217.281 58.458C216.849 58.062 216.213 57.864 215.373 57.864C214.809 57.864 214.257 57.96 213.717 58.152C213.177 58.332 212.721 58.578 212.349 58.89L211.629 57.594C212.121 57.198 212.709 56.898 213.393 56.694C214.077 56.478 214.803 56.37 215.571 56.37ZM215.175 64.776C215.835 64.776 216.405 64.632 216.885 64.344C217.365 64.044 217.713 63.624 217.929 63.084V61.752H215.265C213.801 61.752 213.069 62.244 213.069 63.228C213.069 63.708 213.255 64.086 213.627 64.362C213.999 64.638 214.515 64.776 215.175 64.776ZM232.034 56.46V64.704C232.034 66.372 231.62 67.602 230.792 68.394C229.964 69.198 228.728 69.6 227.084 69.6C226.184 69.6 225.326 69.474 224.51 69.222C223.694 68.982 223.034 68.634 222.53 68.178L223.358 66.846C223.802 67.23 224.348 67.53 224.996 67.746C225.656 67.974 226.334 68.088 227.03 68.088C228.146 68.088 228.968 67.824 229.496 67.296C230.036 66.768 230.306 65.964 230.306 64.884V64.128C229.898 64.62 229.394 64.992 228.794 65.244C228.206 65.484 227.564 65.604 226.868 65.604C225.956 65.604 225.128 65.412 224.384 65.028C223.652 64.632 223.076 64.086 222.656 63.39C222.236 62.682 222.026 61.878 222.026 60.978C222.026 60.078 222.236 59.28 222.656 58.584C223.076 57.876 223.652 57.33 224.384 56.946C225.128 56.562 225.956 56.37 226.868 56.37C227.588 56.37 228.254 56.502 228.866 56.766C229.49 57.03 230 57.42 230.396 57.936V56.46H232.034ZM227.066 64.092C227.69 64.092 228.248 63.96 228.74 63.696C229.244 63.432 229.634 63.066 229.91 62.598C230.198 62.118 230.342 61.578 230.342 60.978C230.342 60.054 230.036 59.31 229.424 58.746C228.812 58.17 228.026 57.882 227.066 57.882C226.094 57.882 225.302 58.17 224.69 58.746C224.078 59.31 223.772 60.054 223.772 60.978C223.772 61.578 223.91 62.118 224.186 62.598C224.474 63.066 224.864 63.432 225.356 63.696C225.86 63.96 226.43 64.092 227.066 64.092ZM243.957 61.284C243.957 61.416 243.945 61.59 243.921 61.806H236.181C236.289 62.646 236.655 63.324 237.279 63.84C237.915 64.344 238.701 64.596 239.637 64.596C240.777 64.596 241.695 64.212 242.391 63.444L243.345 64.56C242.913 65.064 242.373 65.448 241.725 65.712C241.089 65.976 240.375 66.108 239.583 66.108C238.575 66.108 237.681 65.904 236.901 65.496C236.121 65.076 235.515 64.494 235.083 63.75C234.663 63.006 234.453 62.166 234.453 61.23C234.453 60.306 234.657 59.472 235.065 58.728C235.485 57.984 236.055 57.408 236.775 57C237.507 56.58 238.329 56.37 239.241 56.37C240.153 56.37 240.963 56.58 241.671 57C242.391 57.408 242.949 57.984 243.345 58.728C243.753 59.472 243.957 60.324 243.957 61.284ZM239.241 57.828C238.413 57.828 237.717 58.08 237.153 58.584C236.601 59.088 236.277 59.748 236.181 60.564H242.301C242.205 59.76 241.875 59.106 241.311 58.602C240.759 58.086 240.069 57.828 239.241 57.828ZM255.277 66.108C254.329 66.108 253.477 65.898 252.721 65.478C251.965 65.058 251.371 64.482 250.939 63.75C250.519 63.006 250.309 62.166 250.309 61.23C250.309 60.294 250.519 59.46 250.939 58.728C251.371 57.984 251.965 57.408 252.721 57C253.477 56.58 254.329 56.37 255.277 56.37C256.225 56.37 257.071 56.58 257.815 57C258.571 57.408 259.159 57.984 259.579 58.728C260.011 59.46 260.227 60.294 260.227 61.23C260.227 62.166 260.011 63.006 259.579 63.75C259.159 64.482 258.571 65.058 257.815 65.478C257.071 65.898 256.225 66.108 255.277 66.108ZM255.277 64.596C255.889 64.596 256.435 64.458 256.915 64.182C257.407 63.894 257.791 63.498 258.067 62.994C258.343 62.478 258.481 61.89 258.481 61.23C258.481 60.57 258.343 59.988 258.067 59.484C257.791 58.968 257.407 58.572 256.915 58.296C256.435 58.02 255.889 57.882 255.277 57.882C254.665 57.882 254.113 58.02 253.621 58.296C253.141 58.572 252.757 58.968 252.469 59.484C252.193 59.988 252.055 60.57 252.055 61.23C252.055 61.89 252.193 62.478 252.469 62.994C252.757 63.498 253.141 63.894 253.621 64.182C254.113 64.458 254.665 64.596 255.277 64.596ZM264.273 58.062C264.573 57.51 265.017 57.09 265.605 56.802C266.193 56.514 266.907 56.37 267.747 56.37V58.044C267.651 58.032 267.519 58.026 267.351 58.026C266.415 58.026 265.677 58.308 265.137 58.872C264.609 59.424 264.345 60.216 264.345 61.248V66H262.617V56.46H264.273V58.062ZM283.509 66L280.791 62.13C280.455 62.154 280.191 62.166 279.999 62.166H276.885V66H275.085V53.4H279.999C281.631 53.4 282.915 53.79 283.851 54.57C284.787 55.35 285.255 56.424 285.255 57.792C285.255 58.764 285.015 59.592 284.535 60.276C284.055 60.96 283.371 61.458 282.483 61.77L285.471 66H283.509ZM279.945 60.636C281.085 60.636 281.955 60.39 282.555 59.898C283.155 59.406 283.455 58.704 283.455 57.792C283.455 56.88 283.155 56.184 282.555 55.704C281.955 55.212 281.085 54.966 279.945 54.966H276.885V60.636H279.945ZM287.911 56.46H289.639V66H287.911V56.46ZM288.775 54.624C288.439 54.624 288.157 54.516 287.929 54.3C287.713 54.084 287.605 53.82 287.605 53.508C287.605 53.196 287.713 52.932 287.929 52.716C288.157 52.488 288.439 52.374 288.775 52.374C289.111 52.374 289.387 52.482 289.603 52.698C289.831 52.902 289.945 53.16 289.945 53.472C289.945 53.796 289.831 54.072 289.603 54.3C289.387 54.516 289.111 54.624 288.775 54.624ZM302.065 56.46V64.704C302.065 66.372 301.651 67.602 300.823 68.394C299.995 69.198 298.759 69.6 297.115 69.6C296.215 69.6 295.357 69.474 294.541 69.222C293.725 68.982 293.065 68.634 292.561 68.178L293.389 66.846C293.833 67.23 294.379 67.53 295.027 67.746C295.687 67.974 296.365 68.088 297.061 68.088C298.177 68.088 298.999 67.824 299.527 67.296C300.067 66.768 300.337 65.964 300.337 64.884V64.128C299.929 64.62 299.425 64.992 298.825 65.244C298.237 65.484 297.595 65.604 296.899 65.604C295.987 65.604 295.159 65.412 294.415 65.028C293.683 64.632 293.107 64.086 292.687 63.39C292.267 62.682 292.057 61.878 292.057 60.978C292.057 60.078 292.267 59.28 292.687 58.584C293.107 57.876 293.683 57.33 294.415 56.946C295.159 56.562 295.987 56.37 296.899 56.37C297.619 56.37 298.285 56.502 298.897 56.766C299.521 57.03 300.031 57.42 300.427 57.936V56.46H302.065ZM297.097 64.092C297.721 64.092 298.279 63.96 298.771 63.696C299.275 63.432 299.665 63.066 299.941 62.598C300.229 62.118 300.373 61.578 300.373 60.978C300.373 60.054 300.067 59.31 299.455 58.746C298.843 58.17 298.057 57.882 297.097 57.882C296.125 57.882 295.333 58.17 294.721 58.746C294.109 59.31 293.803 60.054 293.803 60.978C293.803 61.578 293.941 62.118 294.217 62.598C294.505 63.066 294.895 63.432 295.387 63.696C295.891 63.96 296.461 64.092 297.097 64.092ZM310.461 56.37C311.673 56.37 312.633 56.724 313.341 57.432C314.061 58.128 314.421 59.154 314.421 60.51V66H312.693V60.708C312.693 59.784 312.471 59.088 312.027 58.62C311.583 58.152 310.947 57.918 310.119 57.918C309.183 57.918 308.445 58.194 307.905 58.746C307.365 59.286 307.095 60.066 307.095 61.086V66H305.367V52.644H307.095V57.81C307.455 57.354 307.923 57 308.499 56.748C309.087 56.496 309.741 56.37 310.461 56.37ZM322.982 65.442C322.73 65.658 322.418 65.826 322.046 65.946C321.674 66.054 321.29 66.108 320.894 66.108C319.934 66.108 319.19 65.85 318.662 65.334C318.134 64.818 317.87 64.08 317.87 63.12V57.882H316.25V56.46H317.87V54.372H319.598V56.46H322.334V57.882H319.598V63.048C319.598 63.564 319.724 63.96 319.976 64.236C320.24 64.512 320.612 64.65 321.092 64.65C321.62 64.65 322.07 64.5 322.442 64.2L322.982 65.442Z" fill="#444444"/>
<rect x="0.5" y="0.5" width="415" height="119" rx="7.5" stroke="#E7E7E7"/>
</svg>
